<?xml version="1.0" encoding="UTF-8"?> <svg xmlns="http://www.w3.org/2000/svg" id="Layer_1" viewBox="0 0 200 200"><defs><style>.cls-1{stroke:#0b9cd8;}.cls-1,.cls-2{fill:none;stroke-linecap:round;stroke-linejoin:round;stroke-width:4.5px;}.cls-2{stroke:#6d6e71;}</style></defs><path class="cls-1" d="m142.93,80.21c19.91-44.51-31.59-78.08-56.73-35.78-34.48-58.01-118.53,26.68,0,86.57,13.75-6.95,24.77-14.23,33.45-21.58"></path><path class="cls-2" d="m154.92,57.2s18.83,18.54,19.19,30.07c.36,11.53,1.8,36.39,0,42.52-1.8,6.13-6.85,18.9-5.41,45.2"></path><path class="cls-2" d="m116.17,175v-15.12s-10.36-12.9-15.46-27.76"></path><path class="cls-2" d="m151.97,100.97l-24.53-24.51c-4.07-4.06-10.66-4.06-14.73,0h0c-4.07,4.06-4.07,10.65,0,14.72l18.1,18.09s1.63,29.71,16.97,40.16"></path></svg> 